<svg id="Ebene_1" data-name="Ebene 1" xmlns="http://www.w3.org/2000/svg" xmlns:xlink="http://www.w3.org/1999/xlink" viewBox="0 0 280 220"><defs><style>.cls-1{fill:url(#linear-gradient);}</style><linearGradient id="linear-gradient" x1="-7.22" y1="209.3" x2="287.22" y2="10.7" gradientUnits="userSpaceOnUse"><stop offset="0" stop-color="#7fcf9f"/><stop offset="0.27" stop-color="#8dcfad"/><stop offset="0.68" stop-color="#9dcfbd"/><stop offset="1" stop-color="#a3cfc3"/></linearGradient></defs><rect class="cls-1" width="280" height="220"/><polygon points="100.38 74.97 91.95 66.55 70.19 88.31 48.42 66.55 40 74.97 61.76 96.73 40 118.5 48.42 126.92 70.19 105.16 91.95 126.92 100.38 118.5 78.61 96.73 100.38 74.97"/><polygon points="240 74.97 231.57 66.55 209.81 88.31 188.05 66.55 179.63 74.97 201.39 96.73 179.63 118.5 188.05 126.92 209.81 105.16 231.57 126.92 240 118.5 218.24 96.73 240 74.97"/><path d="M102,177.49a48.72,48.72,0,0,1,76,0h16.33a62.3,62.3,0,0,0-108.64,0Z"/></svg>