<svg id="Ebene_1" data-name="Ebene 1" xmlns="http://www.w3.org/2000/svg" xmlns:xlink="http://www.w3.org/1999/xlink" viewBox="0 0 280 220"><defs><style>.cls-1{fill:url(#linear-gradient);}.cls-2{fill:#fff;}</style><linearGradient id="linear-gradient" x1="-7.22" y1="209.3" x2="287.22" y2="10.7" gradientUnits="userSpaceOnUse"><stop offset="0" stop-color="#cf6161"/><stop offset="0.14" stop-color="#cf5353"/><stop offset="0.47" stop-color="#cf3939"/><stop offset="0.77" stop-color="#cf2929"/><stop offset="1" stop-color="#cf2323"/></linearGradient></defs><rect class="cls-1" width="280" height="220"/><path class="cls-2" d="M171.3,95c0-5-5-10-10-10s-10,5-10,12.5c0,12.5,20,32.5,20,37.5,0-5,20-25,20-37.5,0-7.5-5-12.5-10-12.5S171.3,90,171.3,95Z"/><path class="cls-2" d="M98.35,110c2.5,0,20,22.5,20,25,0-2.5,17.5-25,20-25-2.5,0-20-22.5-20-25C118.35,87.5,100.85,110,98.35,110Z"/><path class="cls-2" d="M61.89,117.45c-.25,11.78-2.76,12.54-5,17.55h13c-2.25-5-4.76-5.77-5-17.55a.5.5,0,0,1,1,0,10.54,10.54,0,1,0,3.71-10.08.5.5,0,0,1-.7-.7,11.52,11.52,0,1,0-11,0,.5.5,0,0,1-.1.7.51.51,0,0,1-.6,0,10.52,10.52,0,1,0,3.71,10.08.5.5,0,0,1,1,0Z"/><path class="cls-2" d="M222.25,85c-5,12.5-17.75,20-17.75,34.25a7.5,7.5,0,0,0,15,0,.5.5,0,0,1,1,0c0,10-2.5,10.75-4.75,15.75h13c-2.25-5-4.75-5.75-4.75-15.75a.5.5,0,0,1,1,0,7.5,7.5,0,0,0,15,0C240,105,227.25,97.5,222.25,85Z"/></svg>