<svg xmlns="http://www.w3.org/2000/svg" xmlns:xlink="http://www.w3.org/1999/xlink" width="280" height="220" viewBox="0 0 280 220"><defs><linearGradient id="a" x1="140" x2="140" y2="220" gradientUnits="userSpaceOnUse"><stop offset="0" stop-color="#7b7994"/><stop offset="1" stop-color="#68608b"/></linearGradient><pattern id="b" width="20" height="20" patternUnits="userSpaceOnUse" viewBox="0 0 20 20"><rect width="20" height="20" style="fill:none"/><path d="M10,3.7885A6.2186,6.2186,0,0,0,3.7885,10h0A6.2115,6.2115,0,1,0,10,3.7885m0-1.6821A7.8936,7.8936,0,0,1,17.8936,10h0A7.8936,7.8936,0,1,1,10,2.1064Z" style="fill:#fff"/><path d="M10.02,10.49,7.877,6.4364H6.4111v7.1272H8.0286l.01-3.68,1.3648,2.497h1.1928l1.375-2.5577v3.74h1.6175V6.4364H12.1533Z" style="fill:#fff"/></pattern></defs><rect width="280" height="220" style="fill:url(#a)"/><rect width="280" height="220" style="opacity:0.5;fill:url(#b)"/></svg>