<svg xmlns="http://www.w3.org/2000/svg" xmlns:xlink="http://www.w3.org/1999/xlink" width="280" height="220" viewBox="0 0 280 220"><defs><pattern id="a" width="20" height="20" patternUnits="userSpaceOnUse" viewBox="0 0 20 20"><rect width="20" height="20" style="fill:none"/><rect x="1" y="1" width="18" height="18" style="fill:#aaa"/><path d="M18,2H2V18H18V2m2-2V20H0V0Z"/><rect x="2" y="16" width="16" height="2" style="fill:#777"/><rect x="16" y="2" width="2" height="16" style="fill:#777"/><rect x="2" y="2" width="16" height="2" style="fill:#ddd"/><rect x="2" y="2" width="2" height="16" style="fill:#ddd"/></pattern></defs><rect width="280" height="220" style="fill:url(#a)"/><circle cx="75.6935" cy="102.6973" r="32.2385" transform="translate(-22.6477 21.4247) rotate(-14.0362)" style="fill:#ffdd67"/><path d="M55.183,81.9357a15.2956,15.2956,0,0,1,12.96-1.1318c.59.2281,1.5291-1.9377.8095-2.2106A17.6339,17.6339,0,0,0,53.9994,79.9C53.3385,80.2961,54.643,82.2627,55.183,81.9357Z" style="fill:#917524"/><path d="M82.8182,85.39a15.2948,15.2948,0,0,1,12.96-1.1341c.59.2291,1.529-1.9355.8094-2.2107a17.65,17.65,0,0,0-14.954,1.31C80.9737,83.748,82.2736,85.7145,82.8182,85.39Z" style="fill:#917524"/><path d="M66.6507,108.14a21.5254,21.5254,0,0,1,17.327,2.9751c1.2319.859-1.08,3.9734-2.3051,3.11a17.7118,17.7118,0,0,0-13.9811-2.4C66.2373,112.1962,65.0974,108.56,66.6507,108.14Z" style="fill:#664e27"/><path d="M88.1364,101.714a8.6427,8.6427,0,0,1-6.9025-13.8614,23.8318,23.8318,0,0,1,6.4155-.86A23.2218,23.2218,0,0,1,95.336,88.251a8.6558,8.6558,0,0,1-7.2,13.463Z" style="fill:#fff"/><path d="M89.3281,87.0536a4.3358,4.3358,0,1,1-7.4529.6206,24.223,24.223,0,0,1,5.7753-.6794C88.2193,86.9937,88.7766,87.0168,89.3281,87.0536Z" style="fill:#664e27"/><path d="M63.2483,101.714a8.6426,8.6426,0,0,1-6.9024-13.8614,23.8311,23.8311,0,0,1,6.4154-.86,23.2218,23.2218,0,0,1,7.6866,1.2585,8.6558,8.6558,0,0,1-7.2,13.463Z" style="fill:#fff"/><path d="M64.4412,87.0536a4.3358,4.3358,0,1,1-7.4529.6206,24.223,24.223,0,0,1,5.7753-.6794C63.3324,86.9937,63.89,87.0168,64.4412,87.0536Z" style="fill:#664e27"/><path d="M76.4247,118.8569c-4.8508,1.1743-17.1025,2.6308-19.3684.3614-1.0144-1.0235-.821-2.5595-.4928-5.188.3189-2.6-2.1992-5.4506-4.054-5.6832-2.2176-.2809-3.49,1.34-2.7057,3.6809,1.7247,5.1317-1.5521,6.7851-1.7029,10.6008-.0875,2.2106-.7691,5.8673,2.5549,10.5741,3.7581,5.3228,10.3485,5.3884,12.6179,5.309,2.6781-.0921,3.8006-.1935,4.4281-1.41.6932-1.3449.3754-1.6753.6609-2.1635.63-1.0639.9465-.9337,1.2343-2.1346.3109-1.3091-.616-2.0437-.3892-2.68.4652-1.3264,1.6258-1.1376.4606-4.32,3.9216-.5941,6.488-1.2031,8.8022-2.52C82.6605,120.9051,79.0014,118.2317,76.4247,118.8569Z" style="fill:#fff"/><path d="M50.2033,110.9457c.8474,3.8433,1.0708,5.1593-.3961,8.2566-1.9976,4.2151-2.837,15.9154,9.53,18.1467,7.515,1.3563,8.6284-.4928,8.3083-2.449-.2072-1.2607.859-1.7524,1.0973-2.183.8025-1.4392-.3777-2.04-.4-2.6136-.0415-1.0754,1.0408-1.0385,1.2112-2.0736.3109-1.8848-1.9274-2.5227.0564-2.6666,3.8007-.2787,6.3683-.9015,8.5651-2.4363,2.0552-1.4323.63-4.2439-2.1427-3.6556-6.4811,1.3747-16.0686,3.0465-19.3914-.0046-1.4865-1.3644-.2925-2.9464-.4318-6.0482C56.0212,109.0368,49.433,107.4582,50.2033,110.9457ZM58.9422,139.24h0a13.8086,13.8086,0,0,1-9.1753-5.4874,14.54,14.54,0,0,1-2.7817-10.435c.0161-.2671.0311-.5193.0426-.753a10.5422,10.5422,0,0,1,1.18-4.12c.8117-1.79,1.5117-3.3343.571-6.1345a3.8825,3.8825,0,0,1,.5216-3.8951A3.7044,3.7044,0,0,1,52.62,107.34c.0207.0046.1416.0242.1577.0265,2.4582.4317,5.2307,3.7212,4.8508,6.8069-.3109,2.51-.43,3.7236.2026,4.358a3.3389,3.3389,0,0,0,1.7363.6229c4.3556.7645,12.9668-.4111,16.5648-1.2838a4.788,4.788,0,0,1,1.9412-.0426,3.9164,3.9164,0,0,1,3.324,2.6585c.167.776.0852,2.2843-2.3522,3.6706a23.0912,23.0912,0,0,1-8.0032,2.4628c.8773,2.282-1.2815,3.1593-.8474,4.0091.6321,1.2434.4524,2.3211-.8428,3.5243-.9292.8612.1911,1.833-.6817,3.4138-.9809,1.7811-2.7725,1.8733-5.3251,1.9608A21.202,21.202,0,0,1,58.9422,139.24Z" style="fill:#cccfd4"/><path d="M111.0012,147.581c0,1.0822-3.44,1.96-7.6782,1.96-4.2425,0-7.6822-.8772-7.6822-1.96s3.44-1.9609,7.6822-1.9609C107.5615,145.6209,111.0012,146.4973,111.0012,147.581Z" style="fill:#ccc"/><path d="M134.6827,112.8861c-1.4955-.703-26.1958-12.3165-29.7994-14.0106v31.2583c3.5981-1.691,28.2913-13.3005,29.8-14.0114A1.8843,1.8843,0,0,0,134.6827,112.8861Z" style="fill:#ed4c5c"/><rect x="101.7595" y="98.8755" width="3.1231" height="48.7071" style="fill:#d3976e"/><circle cx="204.3065" cy="102.6973" r="32.2384" style="fill:#ffdd67"/><path d="M191.4111,91.9511a5.3731,5.3731,0,1,1-5.3731,5.3731A5.3731,5.3731,0,0,1,191.4111,91.9511Z" style="fill:#664e27"/><path d="M217.2018,91.9511a5.3731,5.3731,0,1,1-5.373,5.3731A5.3731,5.3731,0,0,1,217.2018,91.9511Z" style="fill:#664e27"/><path d="M223.8677,86.6286a15.2943,15.2943,0,0,0-12.5655-3.3668c-.6211.1214-1.1692-2.1718-.4137-2.3168A17.6456,17.6456,0,0,1,225.3872,84.83C225.9685,85.3337,224.3437,87.0445,223.8677,86.6286Z" style="fill:#917524"/><path d="M197.3086,83.1006a15.2947,15.2947,0,0,0-12.5655,3.3667c-.476.4181-2.0987-1.2948-1.5173-1.7988a17.6471,17.6471,0,0,1,14.4987-3.8848C198.48,80.9277,197.93,83.2221,197.3086,83.1006Z" style="fill:#917524"/><circle cx="204.3065" cy="119.8911" r="5.3731" style="fill:#664e27"/><path d="M146.316,116.7264c-3.4547-3.5086-4.5646-6.4131-3.2956-8.6329,2.4929-4.3676,14.2648-4.3422,24.0749-2.1l-.34,1.4456c-9.2038-2.1018-20.3953-2.1715-22.4259,1.3838-1.1226,1.9657,1.0458,4.82,3.0629,6.8684Z" style="fill:#d3976e"/><path d="M168.04,107.8156q-1.1649,1.1472-2.3274,2.2966c-.6824.6745.376,1.7195,1.0576,1.045q1.1649-1.1495,2.3267-2.2974C169.7814,108.1854,168.7206,107.1412,168.04,107.8156Z" style="fill:#ffce31"/><path d="M172.4065,105.5942q1.1518-1.1363,2.3037-2.2752c.6824-.6744-.376-1.7186-1.0584-1.0442q-1.153,1.1377-2.3045,2.2744C170.6633,105.2245,171.7217,106.2687,172.4065,105.5942Z" style="fill:#ffce31"/><path d="M171.3243,108.86q1.1649,1.15,2.3275,2.2966c.6824.6753,1.7408-.3705,1.0584-1.0442q-1.1649-1.1483-2.3275-2.2966C171.7019,107.1412,170.6411,108.1854,171.3243,108.86Z" style="fill:#ffce31"/><path d="M165.7123,103.319q1.153,1.1376,2.3037,2.2752c.6848.6745,1.744-.37,1.0608-1.0442q-1.1531-1.1374-2.3069-2.2752C166.0875,101.6,165.0291,102.6454,165.7123,103.319Z" style="fill:#ffce31"/><path d="M169.4615,109.9713v2.2871a.75.75,0,0,0,1.4986,0v-2.2871A.75.75,0,0,0,169.4615,109.9713Z" style="fill:#ed4c5c"/><path d="M169.4615,101.1737v2.2546a.75.75,0,0,0,1.4986,0v-2.2546A.75.75,0,0,0,169.4615,101.1737Z" style="fill:#ed4c5c"/><path d="M173.5251,107.4546h2.3a.7391.7391,0,0,0,0-1.478h-2.3A.7392.7392,0,0,0,173.5251,107.4546Z" style="fill:#ed4c5c"/><path d="M143.8287,118.001l4.757-4.6937,2.99,2.9537a17.619,17.619,0,0,1,9.803-2.9537,17.3267,17.3267,0,1,1-17.55,17.3245,17.1084,17.1084,0,0,1,2.9916-9.678Z" style="fill:#3e4347"/></svg>