<svg xmlns="http://www.w3.org/2000/svg" xmlns:xlink="http://www.w3.org/1999/xlink" width="280" height="220" viewBox="0 0 280 220"><defs><pattern id="a" width="20" height="20" patternUnits="userSpaceOnUse" viewBox="0 0 20 20"><rect width="20" height="20" style="fill:none"/><rect x="0.4998" y="0.5004" width="19" height="19" style="fill:#d3d3d3"/><path d="M19,1H1V19H19V1m1-1V20H0V0Z" style="fill:#fff"/></pattern></defs><rect width="280" height="220" style="fill:url(#a)"/><rect x="120.5713" y="80.6426" width="19" height="19"/><path d="M139.0713,81.1425v18h-18v-18h18m1-1h-20v20h20v-20Z" style="fill:#fff"/><rect x="100.5" y="60.5713" width="19" height="19"/><path d="M119,61.0713v18H101v-18h18m1-1H100v20h20v-20Z" style="fill:#fff"/><rect x="100.5" y="100.6426" width="19" height="19"/><path d="M119,101.1425v18H101v-18h18m1-1H100v20h20v-20Z" style="fill:#fff"/><rect x="100.5" y="80.6426" width="19" height="19"/><path d="M119,81.1425v18H101v-18h18m1-1H100v20h20v-20Z" style="fill:#fff"/><rect x="100.5" y="120.6426" width="19" height="19"/><path d="M119,121.1425v18H101v-18h18m1-1H100v20h20v-20Z" style="fill:#fff"/><rect x="100.5" y="140.6426" width="19" height="19"/><path d="M119,141.1425v18H101v-18h18m1-1H100v20h20v-20Z" style="fill:#fff"/><rect x="140.5713" y="100.6426" width="19" height="19"/><path d="M159.0713,101.1425v18h-18v-18h18m1-1h-20v20h20v-20Z" style="fill:#fff"/><rect x="160.5713" y="120.6426" width="19" height="19"/><path d="M179.0713,121.1425v18h-18v-18h18m1-1h-20v20h20v-20Z" style="fill:#fff"/><rect x="160.5713" y="140.6426" width="19" height="19"/><path d="M179.0713,141.1425v18h-18v-18h18m1-1h-20v20h20v-20Z" style="fill:#fff"/><rect x="160.5713" y="100.6426" width="19" height="19"/><path d="M179.0713,101.1425v18h-18v-18h18m1-1h-20v20h20v-20Z" style="fill:#fff"/><rect x="160.5713" y="80.6426" width="19" height="19"/><path d="M179.0713,81.1425v18h-18v-18h18m1-1h-20v20h20v-20Z" style="fill:#fff"/><rect x="160.5713" y="60.5" width="19" height="19"/><path d="M179.0713,61V79h-18V61h18m1-1h-20V80h20V60Z" style="fill:#fff"/></svg>