<svg xmlns="http://www.w3.org/2000/svg" width="280" height="220" viewBox="0 0 280 220"><rect width="280" height="220" style="fill:#000223"/><path d="M109.15,97.689a5.6715,5.6715,0,0,0-4.8777-5.1761c-2.626-.4454-5.2761.4476-5.9162,2.6776-.3321-2.91-2.8866-3.9124-6.0251-3.837-3.0582.0761-5.5761,1.469-5.8865,4.2815-.7691-1.6725-2.7425-2.1962-5.0865-2.1388l-.0949.0029c-2.2888.0545-4.2435.8662-4.9962,2.5829a3.8378,3.8378,0,0,0-3.1231.0857c-1.792.6238-4.9583,3.297-6.2772,8.8438-1.0184,4.2794.373,10.2433.373,10.2433a4.8215,4.8215,0,0,0,4.5509,5.0577,4.9212,4.9212,0,0,0,4.6643-2.6038l.0232.8609a5.3911,5.3911,0,0,0,5.5253,5.2492l.0947-.0022a5.3944,5.3944,0,0,0,5.0038-3.7437,6.0017,6.0017,0,0,0,11.9138-1.1123,5.5781,5.5781,0,0,0,5.6073,4.6576l.0933-.0015c3.0842-.056,6.3714-3.073,6.3146-6.1468A128.1818,128.1818,0,0,1,109.15,97.689Z" style="fill:#ffdd67"/><path d="M110.9064,118.5942a5.6023,5.6023,0,0,1-4.184,2.0949l-.0932.0008a7.4663,7.4663,0,0,1-.908-.047c-.1485-.0193-.3-.0388-.4528-.0575a9.3535,9.3535,0,0,1-5.3231-2.69,30.872,30.872,0,0,0,.2768-5.1135c-.0291-1.8338-.144-3.6422-.2261-5.4461-.0843-1.8063-.1343-3.5938-.0612-5.4485a12.9954,12.9954,0,0,0-.8452,2.66,22.9791,22.9791,0,0,0-.4051,2.7589,51.5526,51.5526,0,0,0-.1329,5.5029c.0306,1.8174.1053,3.6139.0306,5.3813a9.5676,9.5676,0,0,1-.3581,2.8305c-.6006,1.2624-2.39,1.5324-3.8952,1.57a7.3185,7.3185,0,0,1-6.5026-3.7958l.009-.074c.1037-.7938.2081-1.59.2955-2.39a46.4164,46.4164,0,0,0,.2722-4.8352,34.7729,34.7729,0,0,0-.3252-4.8576c-.1119-.8058-.2581-1.61-.4462-2.4031a18.1216,18.1216,0,0,0-.711-2.347c-.0612.8206-.0814,1.6294-.1052,2.4322-.0216.8042-.0336,1.6025-.047,2.4-.0216,1.5951-.0381,3.1834-.0381,4.7747.0016,1.5929.015,3.188.0873,4.7987.0337.6729.0762,2.6156.1455,3.4766a5.3915,5.3915,0,0,1-3.6966,1.5943l-.0933.0016A6.4848,6.4848,0,0,1,77.339,117.08c.0045-.0731.0075-.1455.0134-.2186.0963-1.3816.2-2.7708.2641-4.1726a38.63,38.63,0,0,0-.0089-4.2495,16.752,16.752,0,0,0-.2738-2.148,8.1927,8.1927,0,0,0-.2954-1.0654,4.1785,4.1785,0,0,0-.2276-.5117,1.7331,1.7331,0,0,0-.3335-.4462,2.479,2.479,0,0,1,.09.52,4.9816,4.9816,0,0,1,.0089.5171c-.0074.3439-.0321.69-.0627,1.0347-.0641.69-.1424,1.38-.2215,2.0741-.153,1.3877-.2842,2.7864-.3454,4.2011a28.2165,28.2165,0,0,0,.0992,4.2763c.0045.038.0119.0746.0156.1118a5.44,5.44,0,0,1-3.0991.8551c-7.5478,0-5.9453-11.023-4.9276-15.3009a18.0317,18.0317,0,0,1,.57-1.9323,14.2692,14.2692,0,0,0-1.7383,4.3846c-1.0183,4.2793-1.4749,15.3009,4.924,15.3009a5.1546,5.1546,0,0,0,4.44-2.22c.06.3163.22,5.7261,5.773,5.7261l.0947-.0023a5.3769,5.3769,0,0,0,4.1861-2.1822,11.7235,11.7235,0,0,0-.2321,1.5324c-.3744,4.0547,2.8343,6.0513,4.8159,5.3454a34.6339,34.6339,0,0,1,13.36-2.0351c2.39.0924,3.9667-1.587,4.2861-4.325A6.3058,6.3058,0,0,0,110.9064,118.5942Z" style="fill:#eba352"/><path d="M126.3794,90.3042a3.5039,3.5039,0,0,0-3.4705,3.5828v26.2117h6.9428V93.887A3.5027,3.5027,0,0,0,126.3794,90.3042Z" style="fill:#ffdd67"/><path d="M145.0786,120.0987h7.392V90.2016a3.6976,3.6976,0,0,0-3.687-3.6727h-.0187a3.7086,3.7086,0,0,0-3.6863,3.7325Z" style="fill:#ffdd67"/><path d="M148.7836,86.5289h-.0187a3.6,3.6,0,0,0-.6473.066,3.692,3.692,0,0,1,3.0363,3.6067v29.8971h1.3167V90.2016A3.6976,3.6976,0,0,0,148.7836,86.5289Z" style="fill:#eba352"/><path d="M129.8525,120.0987h7.6113V89.59a3.8286,3.8286,0,0,0-3.7995-3.8575h-.0125a3.83,3.83,0,0,0-3.8,3.8575v30.5085Z" style="fill:#ffdd67"/><path d="M133.6643,85.7327h-.0125a3.6476,3.6476,0,0,0-.6516.066,3.8378,3.8378,0,0,1,3.15,3.7915v18.9862l1.314,1.9141V89.59A3.8292,3.8292,0,0,0,133.6643,85.7327Z" style="fill:#eba352"/><path d="M137.4638,117.6213h7.6148V87.1137a3.83,3.83,0,0,0-3.8012-3.8575h-.0125a3.8307,3.8307,0,0,0-3.802,3.8575v30.5076Z" style="fill:#ffdd67"/><path d="M141.2774,83.2562h-.0125a3.6385,3.6385,0,0,0-.6507.0661,3.8362,3.8362,0,0,1,3.15,3.7914v21.4627l1.3148,1.9141V87.1137A3.83,3.83,0,0,0,141.2774,83.2562Z" style="fill:#eba352"/><path d="M126.3794,90.3042a3.505,3.505,0,0,0-.6561.066,3.5246,3.5246,0,0,1,2.8116,3.516v15.5817l1.3176,1.9141V93.887A3.5038,3.5038,0,0,0,126.3794,90.3042Z" style="fill:#eba352"/><path d="M168.5793,107.5621c-1.3889-2.7333-5.8614-2.5978-10.4211,2.4158-3.1843,3.5026-3.8619,4.5937-7.0577,4.59v-3.6691s-28.2585.1239-28.2585,2.3481c0,0-1.3185,9.897,1.4228,16.1185,4.083,9.2676,23.3875,10.6556,31.4926-4.4065C160.5366,116.0755,170.0984,110.5591,168.5793,107.5621Z" style="fill:#ffdd67"/><path d="M168.5793,107.5621a3.1368,3.1368,0,0,0-1.1045-1.2312,3.1914,3.1914,0,0,1,.2122.3449c1.52,2.9972-3.02,6.1449-6.2741,9.3364-2.62,2.5682-5.0538,5.2694-6.37,8.4046-5.7357,13.6733-22.2562,13.6688-29.2131,7.3823,6.3222,7.1485,24.1086,7.7966,30.1055-6.4971,1.3148-3.136,3.6371-5.6919,6.3695-8.4028C165.54,113.6872,170.0984,110.5591,168.5793,107.5621Z" style="fill:#eba352"/><path d="M152.0668,114.5279c-5.2569-1.8356-16.1185,1.8042-14.6913,12.1791,0-9.7151,8.7952-12.1391,13.6368-12.1391C151.5916,114.5679,152.0668,114.5279,152.0668,114.5279Z" style="fill:#eba352"/><path d="M200.6536,109.9064a3.7316,3.7316,0,0,0,2.8858,4.4538l.0338.0089a3.813,3.813,0,0,0,4.5795-2.776l5.46-23.3483a3.7334,3.7334,0,0,0-2.8893-4.4537l-.0329-.0089a3.8125,3.8125,0,0,0-4.5786,2.7769Z" style="fill:#ffdd67"/><path d="M202.0514,113.1657l.04.0088a3.8221,3.8221,0,0,0,4.57-2.808L212.1178,87.02a3.5388,3.5388,0,0,0-.6159-2.9658,3.4692,3.4692,0,0,1,2.1172,4.1666l-5.4585,23.3475a3.8237,3.8237,0,0,1-4.5741,2.8045l-.0329-.009a3.8284,3.8284,0,0,1-2.2482-1.4486A3.886,3.886,0,0,0,202.0514,113.1657Z" style="fill:#eba352"/><path d="M207.6962,112.2359s-7.73-7.6533-21.4914-3.81c0,0-8.1381,1.4273-7.6968,5.5235,0,0-.264,10.1885,3.2431,16.2076,5.2159,8.9637,25.5359,10.4659,30.5941-6.2589C213.35,120.5736,212.5663,111.6582,207.6962,112.2359Z" style="fill:#ffdd67"/><path d="M193.8562,111.2089a3.8013,3.8013,0,0,0,4.4573,2.9569l.0322-.0053a3.7434,3.7434,0,0,0,3.0763-4.3343L196.946,86.28a3.8059,3.8059,0,0,0-4.46-2.96l-.033.0079a3.7364,3.7364,0,0,0-3.07,4.3334Z" style="fill:#ffdd67"/><path d="M196.4628,113.6515l.0385-.0054a3.7511,3.7511,0,0,0,3.0515-4.361L195.0767,85.738a3.7193,3.7193,0,0,0-1.873-2.4818,3.6374,3.6374,0,0,1,3.7371,2.9962L201.4149,109.8a3.75,3.75,0,0,1-3.0577,4.3592l-.03.0062a3.8941,3.8941,0,0,1-2.6513-.4492A3.8322,3.8322,0,0,0,196.4628,113.6515Z" style="fill:#eba352"/><path d="M178.0962,110.0884a3.7843,3.7843,0,0,1,3.3839-4.17l.0632-.0071a3.8178,3.8178,0,0,1,4.2007,3.3733l.6329,5.8283a3.7841,3.7841,0,0,1-3.3813,4.17l-.0615.0071a3.8189,3.8189,0,0,1-4.205-3.3716Z" style="fill:#ffdd67"/><path d="M185.2875,105.911a3.7885,3.7885,0,0,1,3.3832-4.1685l.0615-.0072a3.825,3.825,0,0,1,4.2076,3.3715l.6312,5.8311a3.7885,3.7885,0,0,1-3.3839,4.1721l-.0607.0053a3.8226,3.8226,0,0,1-4.2069-3.3733Z" style="fill:#ffdd67"/><path d="M181.7048,118.0044l.0517-.0053a3.72,3.72,0,0,0,3.33-4.1407l-.633-5.8339a4.59,4.59,0,0,0-.65-1.6545,3.4624,3.4624,0,0,1,1.9444,2.9579l.6373,5.8337a3.7,3.7,0,0,1-3.3323,4.115l-.0445.0054a3.8243,3.8243,0,0,1-3.6889-1.824A3.8242,3.8242,0,0,0,181.7048,118.0044Z" style="fill:#eba352"/><path d="M188.8792,113.8307l.049-.0054a3.7154,3.7154,0,0,0,3.3529-4.1177l-.6348-5.8336a4.6375,4.6375,0,0,0-.6588-1.684,3.5966,3.5966,0,0,1,1.9594,2.9872l.6331,5.8338a3.6955,3.6955,0,0,1-3.3555,4.0927l-.0473.0054a3.8173,3.8173,0,0,1-3.6853-1.824A3.8271,3.8271,0,0,0,188.8792,113.8307Z" style="fill:#eba352"/><path d="M204.281,117.8646c-4.2825-2.0843-13.9594,1.4708-12.0686,10.4069C192.2124,118.986,200.5841,117.4242,204.281,117.8646Z" style="fill:#eba352"/><path d="M202.6523,108.6718c-3.0765-1.8328-3.6906,1.0573-8.9209,1.2116-2.29.0667-3.31,4.81.1579,6.5289,4.8282,2.3909,5.207-.9939,6.38.3255,1.2507,1.4013,2.43,1.6758,3.4847,3.301.7667,1.1776,6.7537-.641,7.3858-3.0613C212.3577,112.3339,207.5349,111.5807,202.6523,108.6718Z" style="fill:#eba352"/><path d="M203.0481,109.4813c-3.1967-1.9068-3.835,1.0991-9.2792,1.2613-2.3838.0686-3.4428,5.0039.1684,6.7912,5.0207,2.4872,5.4122-1.0341,6.6343.3388,1.3043,1.4593,2.5282,1.7437,3.6229,3.4348.7979,1.2275-1.3247,5.8648-1.3247,5.8648s6.1547,4.3388,7.4107,1.866c2.333-4.5911,1.6706-8.2114,1.5985-10.9125C211.7086,111.898,208.13,112.5068,203.0481,109.4813Z" style="fill:#ffdd67"/><path d="M209.23,112.5666c3.4169,1.5689,3.2528,10.4292.7077,14.6975-6.3355,10.6155-20.2041,10.4417-26.7821,4.7578,6.0976,6.521,20.8674,7.1655,27.75-3.8386C213.6636,123.7785,214.5248,113.6827,209.23,112.5666Z" style="fill:#eba352"/><path d="M203.4956,121.4277a2.8237,2.8237,0,0,1,.0535,1.88c.3655-1.21.61-2.4694.2478-3.0274a23.4438,23.4438,0,0,0-3.0175-3.4963c-1.2268-1.3738-1.6172,2.1475-6.64-.3378a4.0728,4.0728,0,0,1-2.3123-4.165,4.1,4.1,0,0,0,2.0137,5.3122c5.0207,2.4845,5.4129-1.0358,6.6361.3378A23.1394,23.1394,0,0,1,203.4956,121.4277Z" style="fill:#eba352"/></svg>