<svg id="Ebene_1" data-name="Ebene 1" xmlns="http://www.w3.org/2000/svg" xmlns:xlink="http://www.w3.org/1999/xlink" viewBox="0 0 280 220"><defs><style>.cls-1{fill:url(#linear-gradient);}.cls-2{fill:#ff00ed;}</style><linearGradient id="linear-gradient" x1="-7.22" y1="209.3" x2="287.22" y2="10.7" gradientUnits="userSpaceOnUse"><stop offset="0" stop-color="#bff600"/><stop offset="0.14" stop-color="#cbf825"/><stop offset="0.34" stop-color="#dafa54"/><stop offset="0.54" stop-color="#e6fc79"/><stop offset="0.72" stop-color="#eefe94"/><stop offset="0.88" stop-color="#f3ffa4"/><stop offset="1" stop-color="#f5ffaa"/></linearGradient></defs><rect class="cls-1" width="280" height="220"/><path class="cls-2" d="M89.78,129.78Q86,126,88.59,120.59l28.3-59.26a6,6,0,0,1,4.33-3.66q2.77-.48,5.52,2.26a6.74,6.74,0,0,1,2.19,4,9,9,0,0,1-1.15,4.71l-23.41,47.11L152,93q5.33-2.52,8.67.81a5.66,5.66,0,0,1,1.85,3.78,10.74,10.74,0,0,1-1.26,4.82L137.85,150.3l48-23.56a9.28,9.28,0,0,1,4.67-1.11,6.38,6.38,0,0,1,4,2.07,5.56,5.56,0,0,1,1.85,5.11,6.09,6.09,0,0,1-3.71,4.3l-59.47,28.22a9.51,9.51,0,0,1-4.89,1,8.12,8.12,0,0,1-6.37-6.37,9.46,9.46,0,0,1,1.11-5l22.22-46.37L98.74,130.89A9.68,9.68,0,0,1,93.89,132,6.69,6.69,0,0,1,89.78,129.78Z"/><path d="M89.78,119.78Q86,116,88.59,110.59l28.3-59.26a6,6,0,0,1,4.33-3.66q2.77-.48,5.52,2.26a6.74,6.74,0,0,1,2.19,4,9,9,0,0,1-1.15,4.71l-23.41,47.11L152,83q5.33-2.52,8.67.81a5.66,5.66,0,0,1,1.85,3.78,10.74,10.74,0,0,1-1.26,4.82L137.85,140.3l48-23.56a9.28,9.28,0,0,1,4.67-1.11,6.38,6.38,0,0,1,4,2.07,5.56,5.56,0,0,1,1.85,5.11,6.09,6.09,0,0,1-3.71,4.3l-59.47,28.22a9.51,9.51,0,0,1-4.89,1,8.12,8.12,0,0,1-6.37-6.37,9.46,9.46,0,0,1,1.11-5l22.22-46.37L98.74,120.89A9.68,9.68,0,0,1,93.89,122,6.69,6.69,0,0,1,89.78,119.78Z"/></svg>